<?xml version="1.0" encoding="UTF-8" standalone="no"?>
<!-- Created with Inkscape (http://www.inkscape.org/) -->

<svg
   width="40.930561mm"
   height="43.209003mm"
   viewBox="0 0 40.930561 43.209003"
   version="1.1"
   id="svg22910"
   sodipodi:docname="gradient.svg"
   inkscape:version="1.2 (dc2aeda, 2022-05-15)"
   inkscape:export-filename="gradient.pdf"
   inkscape:export-xdpi="96"
   inkscape:export-ydpi="96"
   xmlns:inkscape="http://www.inkscape.org/namespaces/inkscape"
   xmlns:sodipodi="http://sodipodi.sourceforge.net/DTD/sodipodi-0.dtd"
   xmlns="http://www.w3.org/2000/svg"
   xmlns:svg="http://www.w3.org/2000/svg"
   xmlns:ns2="http://www.iki.fi/pav/software/textext/">
  <sodipodi:namedview
     id="namedview22912"
     pagecolor="#ffffff"
     bordercolor="#000000"
     borderopacity="0.25"
     inkscape:showpageshadow="2"
     inkscape:pageopacity="0.0"
     inkscape:pagecheckerboard="0"
     inkscape:deskcolor="#d1d1d1"
     inkscape:document-units="mm"
     showgrid="false"
     inkscape:zoom="1.3788817"
     inkscape:cx="116.39867"
     inkscape:cy="112.04732"
     inkscape:window-width="1390"
     inkscape:window-height="847"
     inkscape:window-x="84"
     inkscape:window-y="25"
     inkscape:window-maximized="0"
     inkscape:current-layer="layer1" />
  <defs
     id="defs22907">
    <marker
       style="overflow:visible"
       id="TriangleStart"
       refX="0"
       refY="0"
       orient="auto-start-reverse"
       inkscape:stockid="TriangleStart"
       markerWidth="5.3244081"
       markerHeight="6.155385"
       viewBox="0 0 5.3244081 6.1553851"
       inkscape:isstock="true"
       inkscape:collect="always"
       preserveAspectRatio="xMidYMid">
      <path
         transform="scale(0.5)"
         style="fill:context-stroke;fill-rule:evenodd;stroke:context-stroke;stroke-width:1pt"
         d="M 5.77,0 -2.88,5 V -5 Z"
         id="path135" />
    </marker>
    <inkscape:path-effect
       effect="spiro"
       id="path-effect23089"
       is_visible="true"
       lpeversion="1" />
    <inkscape:path-effect
       effect="spiro"
       id="path-effect23085"
       is_visible="true"
       lpeversion="1" />
    <inkscape:path-effect
       effect="spiro"
       id="path-effect23081"
       is_visible="true"
       lpeversion="1" />
    <inkscape:path-effect
       effect="spiro"
       id="path-effect10755"
       is_visible="true"
       lpeversion="1" />
    <inkscape:path-effect
       effect="spiro"
       id="path-effect10765"
       is_visible="true"
       lpeversion="1" />
    <inkscape:path-effect
       effect="spiro"
       id="path-effect10775"
       is_visible="true"
       lpeversion="1" />
  </defs>
  <g
     inkscape:label="Layer 1"
     inkscape:groupmode="layer"
     id="layer1"
     transform="translate(-25.531468,-108.73071)">
    <path
       style="fill:none;stroke:#666666;stroke-width:0.499999;-inkscape-stroke:none;stop-color:#000000"
       d="m 29.695351,115.74032 c 6.322569,2.61786 11.711953,7.4298 15.026566,13.41657 1.430921,2.58449 2.479261,5.36261 3.827867,7.99099 1.348607,2.62838 3.054174,5.16253 5.47429,6.85669 2.07509,1.45263 4.62348,2.21715 7.155508,2.14665"
       id="path23079"
       inkscape:path-effect="#path-effect23081"
       inkscape:original-d="m 29.695351,115.74032 c 5.009121,4.47245 10.017974,8.94465 15.026566,13.41657 5.008589,4.47193 6.201704,9.89872 9.302157,14.84768 3.100456,4.94896 4.770602,1.43136 7.155508,2.14665" />
    <path
       style="fill:none;stroke:#666666;stroke-width:0.499999;-inkscape-stroke:none;stop-color:#000000"
       d="m 25.580936,123.61138 c 1.950764,-0.39379 4.027857,-0.13271 5.820488,0.73159 1.792632,0.8643 3.290447,2.32684 4.197221,4.09837 1.015369,1.98369 1.276867,4.25778 1.452681,6.47929 0.175813,2.2215 0.290031,4.48528 1.051745,6.57951 0.66724,1.83448 1.828104,3.48678 3.327717,4.73646 1.499613,1.24968 3.334163,2.09356 5.258893,2.41905"
       id="path23083"
       inkscape:path-effect="#path-effect23085"
       inkscape:original-d="m 25.580936,123.61138 c 3.339501,1.55062 6.678738,3.22024 10.017709,4.82996 3.338972,1.60973 1.669883,8.70613 2.504426,13.0588 0.834546,4.35267 5.724671,4.77061 8.58661,7.15551" />
    <path
       style="fill:none;stroke:#666666;stroke-width:0.499999;-inkscape-stroke:none;stop-color:#000000"
       d="m 43.290815,108.7637 c 0.638592,4.7976 2.432633,9.43736 5.187741,13.41657 2.716649,3.92366 6.362928,7.19914 10.554372,9.48105"
       id="path23087"
       inkscape:path-effect="#path-effect23089"
       inkscape:original-d="m 43.290815,108.7637 c 1.789141,4.3532 3.45876,8.94465 5.187741,13.41657 1.728983,4.47193 7.036514,6.32097 10.554372,9.48105" />
    <text
       xml:space="preserve"
       style="font-weight:bold;font-size:4.23333px;font-family:sans-serif;-inkscape-font-specification:'sans-serif Bold';fill:#000000;fill-opacity:0.85;stroke-width:0.3;stroke-linecap:round;stroke-linejoin:round;stroke-dasharray:1.2, 1.2;-inkscape-stroke:none;stop-color:#000000"
       x="46.510792"
       y="151.87564"
       id="text23093"><tspan
         sodipodi:role="line"
         id="tspan23091"
         x="46.510792"
         y="151.87564"
         style="font-weight:normal;font-size:4.23333px;stroke-width:0.3">10</tspan></text>
    <text
       xml:space="preserve"
       style="font-weight:bold;font-size:4.23333px;font-family:sans-serif;-inkscape-font-specification:'sans-serif Bold';fill:#000000;fill-opacity:0.85;stroke-width:0.3;stroke-linecap:round;stroke-linejoin:round;stroke-dasharray:1.2, 1.2;-inkscape-stroke:none;stop-color:#000000"
       x="61.358467"
       y="148.29787"
       id="text23097"><tspan
         sodipodi:role="line"
         id="tspan23095"
         x="61.358467"
         y="148.29787"
         style="font-weight:normal;font-size:4.23333px;stroke-width:0.3">20</tspan></text>
    <text
       xml:space="preserve"
       style="font-weight:bold;font-size:4.23333px;font-family:sans-serif;-inkscape-font-specification:'sans-serif Bold';fill:#000000;fill-opacity:0.85;stroke-width:0.3;stroke-linecap:round;stroke-linejoin:round;stroke-dasharray:1.2, 1.2;-inkscape-stroke:none;stop-color:#000000"
       x="59.390705"
       y="134.34464"
       id="text23101"><tspan
         sodipodi:role="line"
         id="tspan23099"
         x="59.390705"
         y="134.34464"
         style="font-weight:normal;font-size:4.23333px;stroke-width:0.3">30</tspan></text>
    <circle
       style="fill:#000000;stroke:#000000;stroke-width:0.499999;-inkscape-stroke:none;stop-color:#000000"
       id="path23103"
       cx="45.526905"
       cy="130.49855"
       r="0.98388219" />
    <path
       style="fill:#000000;stroke:#000000;stroke-width:1;stroke-dasharray:none;marker-end:url(#TriangleStart);stop-color:#000000"
       d="m 45.616354,130.58799 15.089967,-7.17815"
       id="path23105"
       sodipodi:nodetypes="cc" />
    <path
       style="fill:none;stroke:#000000;stroke-width:0.5;stroke-linecap:round;stroke-dasharray:none;stop-color:#000000"
       d="m 51.087753,130.25263 -3.621377,1.7489 1.90971,3.77291"
       id="path23516" />
    <g
       transform="matrix(0.705556,0,0,0.705556,54.972611,114.43363)"
       ns2:version="1.8.2"
       ns2:texconverter="pdflatex"
       ns2:pdfconverter="inkscape"
       ns2:text="$\\nabla J$"
       ns2:preamble="/Users/jvkersch/Library/Application Support/org.inkscape.Inkscape/config/inkscape/extensions/textext/default_packages.tex"
       ns2:scale="2.0"
       ns2:alignment="middle center"
       ns2:stroke-to-path="0"
       ns2:jacobian_sqrt="0.705556"
       id="g23580">
      <defs
         id="id-1a4d3561-fcfd-4eac-941f-8d77e358700a">
        <g
           id="id-de371f18-5dc4-45ab-a446-d47ef88965f5">
          <g
             id="id-63ea40c2-3d2b-4560-9112-e1d85ea51a01" />
          <g
             id="id-1207c93c-ceac-45cf-918e-705093995cb5">
            <path
               d="M 7.78125,-6.59375 C 7.796875,-6.625 7.828125,-6.6875 7.828125,-6.734375 7.828125,-6.796875 7.8125,-6.8125 7.59375,-6.8125 H 0.703125 c -0.21875,0 -0.234375,0.015625 -0.234375,0.078125 0,0.046875 0.03125,0.109375 0.046875,0.140625 L 3.875,0.140625 c 0.078125,0.125 0.109375,0.1875 0.265625,0.1875 0.171875,0 0.203125,-0.0625 0.28125,-0.1875 z m -6.078125,0.5 h 5.46875 l -2.71875,5.484375 z m 0,0"
               id="id-d256d817-8923-4575-ae6a-d230e182b048" />
          </g>
          <g
             id="id-b6b32405-a115-47af-b6aa-37ffb98c50ad" />
          <g
             id="id-76ef8709-f74e-459e-ad1b-3504502e64ee">
            <path
               d="M 5.390625,-6.078125 C 5.46875,-6.40625 5.5,-6.5 6.046875,-6.5 c 0.15625,0 0.265625,0 0.265625,-0.1875 0,-0.09375 -0.0625,-0.125 -0.140625,-0.125 -0.25,0 -0.859375,0.03125 -1.109375,0.03125 -0.328125,0 -1.140625,-0.03125 -1.46875,-0.03125 -0.078125,0 -0.203125,0 -0.203125,0.203125 C 3.390625,-6.5 3.46875,-6.5 3.734375,-6.5 c 0.21875,0 0.328125,0 0.578125,0.015625 0.234375,0.03125 0.296875,0.0625 0.296875,0.203125 0,0.0625 -0.015625,0.125 -0.03125,0.203125 L 3.421875,-1.5 C 3.1875,-0.53125 2.515625,0 2,0 1.734375,0 1.203125,-0.09375 1.046875,-0.625 c 0.03125,0.015625 0.09375,0.015625 0.125,0.015625 0.390625,0 0.640625,-0.34375 0.640625,-0.640625 0,-0.3125 -0.265625,-0.421875 -0.4375,-0.421875 -0.171875,0 -0.671875,0.125 -0.671875,0.796875 0,0.625 0.53125,1.09375 1.328125,1.09375 0.90625,0 1.953125,-0.65625 2.203125,-1.640625 z m 0,0"
               id="id-64b1cee1-d2d3-4859-a521-11ca4b236e61" />
          </g>
        </g>
      </defs>
      <g
         fill="#000000"
         fill-opacity="1"
         id="id-67387f58-5310-476f-b6b2-3c327dd60625"
         transform="translate(-149.181,-127.953)">
        <g
           transform="translate(148.712,134.765)"
           id="g23573">
          <path
             d="M 7.78125,-6.59375 C 7.796875,-6.625 7.828125,-6.6875 7.828125,-6.734375 7.828125,-6.796875 7.8125,-6.8125 7.59375,-6.8125 H 0.703125 c -0.21875,0 -0.234375,0.015625 -0.234375,0.078125 0,0.046875 0.03125,0.109375 0.046875,0.140625 L 3.875,0.140625 c 0.078125,0.125 0.109375,0.1875 0.265625,0.1875 0.171875,0 0.203125,-0.0625 0.28125,-0.1875 z m -6.078125,0.5 h 5.46875 l -2.71875,5.484375 z m 0,0"
             id="id-25b8b184-7332-4821-a3a1-d1ae1cb90269" />
        </g>
      </g>
      <g
         fill="#000000"
         fill-opacity="1"
         id="id-68dc5adb-4231-4865-b8b8-6fb11eec70c4"
         transform="translate(-149.181,-127.953)">
        <g
           transform="translate(157.015,134.765)"
           id="g23577">
          <path
             d="M 5.390625,-6.078125 C 5.46875,-6.40625 5.5,-6.5 6.046875,-6.5 c 0.15625,0 0.265625,0 0.265625,-0.1875 0,-0.09375 -0.0625,-0.125 -0.140625,-0.125 -0.25,0 -0.859375,0.03125 -1.109375,0.03125 -0.328125,0 -1.140625,-0.03125 -1.46875,-0.03125 -0.078125,0 -0.203125,0 -0.203125,0.203125 C 3.390625,-6.5 3.46875,-6.5 3.734375,-6.5 c 0.21875,0 0.328125,0 0.578125,0.015625 0.234375,0.03125 0.296875,0.0625 0.296875,0.203125 0,0.0625 -0.015625,0.125 -0.03125,0.203125 L 3.421875,-1.5 C 3.1875,-0.53125 2.515625,0 2,0 1.734375,0 1.203125,-0.09375 1.046875,-0.625 c 0.03125,0.015625 0.09375,0.015625 0.125,0.015625 0.390625,0 0.640625,-0.34375 0.640625,-0.640625 0,-0.3125 -0.265625,-0.421875 -0.4375,-0.421875 -0.171875,0 -0.671875,0.125 -0.671875,0.796875 0,0.625 0.53125,1.09375 1.328125,1.09375 0.90625,0 1.953125,-0.65625 2.203125,-1.640625 z m 0,0"
             id="id-06bba285-461e-4964-9c56-038624398323" />
        </g>
      </g>
    </g>
  </g>
</svg>
